<svg width="43" height="43" viewBox="0 0 43 43" fill="none" xmlns="http://www.w3.org/2000/svg">
<path d="M9.22646 21.5C9.22646 20.4818 10.0519 19.6563 11.0702 19.6563H19.6562V11.0702C19.6562 10.0519 20.4817 9.22645 21.5 9.22645C22.5182 9.22645 23.3437 10.0519 23.3437 11.0702V19.6563H31.9299C32.9481 19.6563 33.7736 20.4818 33.7736 21.5C33.7736 22.5183 32.9481 23.3438 31.9299 23.3438H23.3437V31.9299C23.3437 32.9481 22.5182 33.7736 21.5 33.7736C20.4817 33.7736 19.6562 32.9481 19.6562 31.9299V23.3438H11.0702C10.0519 23.3438 9.22646 22.5183 9.22646 21.5Z" fill="#00B0D7"/>
<path fill-rule="evenodd" clip-rule="evenodd" d="M9.98694 1.2649C17.5772 0.416582 25.4227 0.416582 33.0129 1.2649C37.5028 1.76671 41.1286 5.30337 41.6567 9.81924C42.5644 17.58 42.5644 25.4201 41.6567 33.1809C41.1286 37.6967 37.5028 41.2334 33.0129 41.7352C25.4227 42.5835 17.5772 42.5835 9.98694 41.7352C5.49708 41.2334 1.87129 37.6967 1.34312 33.1809C0.435431 25.4201 0.435431 17.58 1.34312 9.81924C1.87129 5.30337 5.49709 1.76671 9.98694 1.2649ZM32.6033 4.92958C25.2853 4.11169 17.7146 4.11169 10.3965 4.92958C7.58313 5.24402 5.33117 7.4645 5.00566 10.2476C4.13125 17.7238 4.13125 25.2763 5.00566 32.7525C5.33117 35.5356 7.58313 37.7561 10.3965 38.0705C17.7146 38.8884 25.2853 38.8884 32.6033 38.0705C35.4167 37.7561 37.6687 35.5356 37.9942 32.7525C38.8686 25.2763 38.8686 17.7238 37.9942 10.2476C37.6687 7.4645 35.4167 5.24402 32.6033 4.92958Z" fill="#00B0D7"/>
</svg>
