<svg width="21" height="25" viewBox="0 0 21 25" fill="none" xmlns="http://www.w3.org/2000/svg">
<path d="M10.5 0.741104C8.15359 0.754172 5.90802 1.69656 4.25504 3.36189C2.60206 5.02722 1.67641 7.27974 1.6808 9.62615C1.6808 16.5843 9.66829 23.7731 9.99767 24.0695C10.13 24.1916 10.3034 24.2594 10.4835 24.2594C10.6636 24.2594 10.837 24.1916 10.9693 24.0695C11.3152 23.7731 19.3027 16.5843 19.3027 9.62615C19.3071 7.28258 18.3837 5.03253 16.7343 3.36767C15.0848 1.70281 12.8435 0.758508 10.5 0.741104V0.741104Z" stroke="white" stroke-width="1.48221" stroke-linecap="round" stroke-linejoin="round"/>
<path d="M10.5 13.4634C9.72799 13.4634 8.97336 13.2345 8.33148 12.8056C7.68961 12.3768 7.18934 11.7672 6.89391 11.054C6.59849 10.3407 6.5212 9.55595 6.6718 8.79881C6.82241 8.04167 7.19415 7.34619 7.74001 6.80032C8.28588 6.25446 8.98136 5.88272 9.7385 5.73211C10.4956 5.58151 11.2804 5.6588 11.9936 5.95422C12.7069 6.24965 13.3164 6.74992 13.7453 7.3918C14.1742 8.03367 14.4031 8.7883 14.4031 9.56028C14.401 10.5948 13.989 11.5863 13.2575 12.3178C12.526 13.0493 11.5345 13.4613 10.5 13.4634V13.4634Z" stroke="white" stroke-width="1.48221" stroke-linecap="round" stroke-linejoin="round"/>
</svg>
