<svg width="25" height="25" viewBox="0 0 25 25" fill="none" xmlns="http://www.w3.org/2000/svg">
<path d="M8.29071 1.78574H16.7091C17.7295 1.78574 18.6223 2.67859 18.6223 3.699V21.4286C18.6223 22.449 17.7295 23.3419 16.7091 23.3419H8.29071C7.2703 23.3419 6.37744 22.449 6.37744 21.4286V3.699C6.37744 2.67859 7.2703 1.78574 8.29071 1.78574Z" stroke="#231F20" stroke-width="1.07" stroke-linecap="round" stroke-linejoin="round"/>
<path d="M12.5001 3.44389H10.3317C10.0766 3.44389 9.82153 3.18878 9.82153 2.93368V1.65817H15.6889V2.93368C15.6889 3.18878 15.4338 3.44389 15.1787 3.57144L12.5001 3.44389Z" fill="#231F20"/>
<path d="M1.91322 10.8419C1.27547 12.8827 1.91322 15.1786 3.57139 16.4541" stroke="#231F20" stroke-width="1.07" stroke-linecap="round" stroke-linejoin="round"/>
<path d="M0 10.3316L3.57143 8.41837L3.44388 12.5L0 10.3316Z" fill="#231F20"/>
<path d="M23.0866 13.9031C23.7244 11.8623 23.0866 9.69389 21.4285 8.29083" stroke="#231F20" stroke-width="1.07" stroke-linecap="round" stroke-linejoin="round"/>
<path d="M25 14.5408L21.301 16.3265L21.5561 12.2449L25 14.5408Z" fill="#231F20"/>
</svg>
