<svg width="25" height="25" viewBox="0 0 25 25" fill="none" xmlns="http://www.w3.org/2000/svg">
<g clip-path="url(#clip0_1767_94)">
<path d="M10.9514 24.4469H9.8452C9.18148 24.4469 8.62839 23.8938 8.62839 23.2301V12.8319C8.07529 13.0531 7.52219 13.2743 6.96909 13.1637C5.19918 13.1637 3.53989 11.5044 3.20803 11.1726C3.09741 11.1726 3.09741 11.062 3.09741 10.9513V7.41151C3.09741 7.30089 3.09741 7.19027 3.20803 7.07965C4.09299 5.97346 5.53104 5.19912 6.96909 5.0885C8.07529 4.97788 9.07086 5.42036 9.8452 6.08408C11.5045 7.52213 12.0576 11.5044 12.0576 12.1682C12.0576 12.8319 12.0576 19.2478 12.1682 22.3451V23.2301C12.1682 23.8938 11.6151 24.4469 10.9514 24.4469Z" stroke="#231F20" stroke-linecap="round" stroke-linejoin="round"/>
<path d="M16.2612 19.8009H15.155C14.4913 19.8009 13.9382 19.2478 13.9382 18.5841C13.9382 15.3761 13.9382 7.74336 14.1595 6.8584C15.8188 0.553094 18.9161 0.442474 19.0267 0.442474C19.3586 0.442474 22.1241 0.553094 22.1241 4.31416C22.1241 7.4115 20.5754 8.51769 19.248 8.51769C18.5842 8.40708 18.0312 8.18584 17.5887 7.74336V18.4734C17.4781 19.2478 16.925 19.8009 16.2612 19.8009Z" stroke="#231F20" stroke-linecap="round" stroke-linejoin="round"/>
<path d="M18.916 2.98672H19.2478C19.5797 2.98672 19.9115 3.31858 19.9115 3.65044V5.30973C19.9115 5.75221 19.5797 6.08407 19.1372 6.08407H18.8053C18.3629 6.08407 18.031 5.75221 18.031 5.30973V3.65044C18.1416 3.31858 18.4735 2.98672 18.916 2.98672Z" fill="#231F20"/>
</g>
<defs>
<clipPath id="clip0_1767_94">
<rect width="25" height="25" fill="white"/>
</clipPath>
</defs>
</svg>
