<svg width="25" height="25" viewBox="0 0 25 25" fill="none" xmlns="http://www.w3.org/2000/svg">
<path d="M16.3899 19.112C18.457 18.1233 18.5501 14.0133 16.598 9.93221C14.6459 5.85108 11.3877 3.3442 9.32064 4.33293C7.25357 5.32167 7.16039 9.43161 9.11251 13.5127C11.0646 17.5939 14.3228 20.1008 16.3899 19.112Z" stroke="#231F20" stroke-width="1.07" stroke-miterlimit="10"/>
<path d="M7.8724 6.48935L3.82985 12.8723C3.5107 13.4042 3.40431 14.1489 3.72346 14.7872L5.31921 17.7659C5.63836 18.4042 6.17027 18.7234 6.91495 18.7234L14.4681 19.1489" stroke="#231F20" stroke-width="1.07" stroke-miterlimit="10"/>
<path d="M5.85112 18.617L4.36175 19.3617C3.08516 20 1.5958 19.5745 0.851115 18.2979C0.212817 17.0213 0.638349 15.5319 1.91494 14.7872L3.40431 14.0425" stroke="#231F20" stroke-width="1.07" stroke-miterlimit="10"/>
<path d="M6.91488 18.8298L8.29786 21.0638C8.72339 21.8085 8.40424 22.7659 7.55318 23.1915C6.8085 23.617 5.85105 23.2979 5.42552 22.5532V22.4468L4.14893 19.5745" stroke="#231F20" stroke-width="1.07" stroke-miterlimit="10"/>
<path d="M10.4255 9.99998C11.5957 9.2553 13.1915 9.57445 13.9362 10.851V10.9574C14.6809 12.1276 14.3617 13.7234 13.0851 14.4681" stroke="#231F20" stroke-width="1.07" stroke-miterlimit="10" stroke-linecap="round"/>
<path d="M16.2766 3.72339L17.4468 1.70212" stroke="#231F20" stroke-width="1.07" stroke-miterlimit="10" stroke-linecap="round"/>
<path d="M20.7446 8.08509L24.3616 6.27658" stroke="#231F20" stroke-width="1.07" stroke-miterlimit="10" stroke-linecap="round"/>
<path d="M21.915 13.8298L24.3618 14.2553" stroke="#231F20" stroke-width="1.07" stroke-miterlimit="10" stroke-linecap="round"/>
</svg>
