<svg width="25" height="25" viewBox="0 0 25 25" fill="none" xmlns="http://www.w3.org/2000/svg">
<path d="M7.44175 5.34885H16.5115C18.0231 5.34885 19.1859 6.51164 19.1859 8.02327V17.093C19.1859 18.6047 18.0231 19.7675 16.5115 19.7675H7.44175C5.93012 19.7675 4.76733 18.6047 4.76733 17.093V8.02327C4.76733 6.51164 5.93012 5.34885 7.44175 5.34885Z" stroke="#231F20" stroke-miterlimit="10"/>
<path d="M9.30229 0.58139H14.6511C15.5814 0.58139 16.3953 1.27906 16.3953 2.2093C16.3953 2.2093 16.3953 2.2093 16.3953 2.32558V5.34883H7.55811V2.32558C7.55811 1.39534 8.37206 0.58139 9.30229 0.58139Z" stroke="#231F20" stroke-miterlimit="10"/>
<path d="M14.6511 24.4186H9.30229C8.37206 24.4186 7.55811 23.6046 7.55811 22.6744V19.7674H16.3953V22.6744C16.3953 23.7209 15.5814 24.4186 14.6511 24.4186Z" stroke="#231F20" stroke-miterlimit="10"/>
<path d="M20.1162 8.95349H19.3022V10.9302H20.1162V8.95349Z" stroke="#231F20" stroke-width="1.17" stroke-linecap="round" stroke-linejoin="round"/>
</svg>
