<svg width="25" height="25" viewBox="0 0 25 25" fill="none" xmlns="http://www.w3.org/2000/svg">
<g clip-path="url(#clip0_1767_79)">
<path d="M25.0001 19.4444C25.0001 19.4444 24.9159 19.4444 25.0001 19.4444C24.9159 19.5286 24.9159 19.5286 24.9159 19.5286C24.1583 19.697 23.4849 19.7811 22.7273 19.8653C18.6869 19.9495 6.31318 19.9495 2.35696 19.8653C1.59938 19.8653 0.841804 19.697 0.168404 19.5286C0.168404 19.5286 0.0842285 19.5286 0.0842285 19.4444V18.771C0.0842285 18.771 0.0842285 18.6869 0.168404 18.6869H25.0001C25.0842 18.6869 25.0842 18.6869 25.0842 18.771V19.4444H25.0001Z" fill="#231F20"/>
<path d="M22.3905 5.97642C22.4747 5.97642 22.6431 6.0606 22.6431 6.22895V18.266H2.69356V6.22895C2.69356 6.14478 2.77773 5.97642 2.94608 5.97642H22.3905ZM22.3905 5.13467H2.94608C2.35686 5.13467 1.85181 5.63972 1.85181 6.22895V19.1919H23.569V6.22895C23.569 5.63972 23.0639 5.13467 22.3905 5.13467C22.4747 5.13467 22.3905 5.13467 22.3905 5.13467Z" fill="#231F20"/>
<path d="M8.41748 18.8552H16.5825V19.1077C16.5825 19.1919 16.4983 19.2761 16.4141 19.2761H8.58583C8.50166 19.2761 8.41748 19.1919 8.41748 19.1077V18.8552Z" fill="white"/>
</g>
<defs>
<clipPath id="clip0_1767_79">
<rect width="25" height="25" fill="white"/>
</clipPath>
</defs>
</svg>
