<svg width="25" height="25" viewBox="0 0 25 25" fill="none" xmlns="http://www.w3.org/2000/svg">
<path d="M8.63868 19.7644H5.10465C4.18842 19.7644 3.40308 18.9791 3.40308 18.0628V2.35602C3.40308 1.43979 4.18842 0.654449 5.10465 0.654449H12.6963C13.6125 0.654449 14.3978 1.43979 14.3978 2.35602V9.42408" stroke="#231F20" stroke-linecap="round" stroke-linejoin="round"/>
<path d="M15.9685 10.6021C19.5025 10.6021 22.2512 13.4817 22.2512 16.8848C22.2512 20.4188 19.3717 23.1675 15.9685 23.1675C12.4345 23.1675 9.68579 20.2879 9.68579 16.8848C9.68579 13.3508 12.5654 10.6021 15.9685 10.6021Z" fill="#231F20"/>
<path d="M16.2302 6.15184C17.9318 6.02095 19.5025 6.93718 20.4187 8.37697" stroke="#231F20" stroke-linecap="round" stroke-linejoin="round"/>
<path d="M18.5864 8.37695L20.9424 10.6021L21.5969 7.32983L18.5864 8.37695Z" fill="#231F20"/>
<path d="M11.1256 24.0838C10.7329 24.2147 10.3403 24.3456 9.94761 24.3456C8.6387 24.4764 7.46069 24.0838 6.41357 23.2984" stroke="#231F20" stroke-linecap="round" stroke-linejoin="round"/>
<path d="M8.11521 22.644L5.10474 21.3351L5.49741 24.6073L8.11521 22.644Z" fill="#231F20"/>
<path d="M5.75903 0.654449H11.9109V1.96335C11.9109 2.22513 11.6491 2.6178 11.3873 2.6178H11.2564H6.41348C6.02081 2.6178 5.75903 2.35602 5.75903 2.09424V0.654449Z" fill="#231F20"/>
<path d="M17.0156 18.4555C17.0156 18.1937 16.8847 18.0628 16.7538 17.801C16.4921 17.6701 16.2303 17.4084 15.9685 17.4084C15.7067 17.2775 15.4449 17.1466 15.1832 17.0157C14.5287 16.7539 14.136 16.0995 14.136 15.445C14.136 15.0523 14.2669 14.5288 14.5287 14.267C14.7905 14.0052 15.3141 13.7434 15.7067 13.7434V12.6963H16.3612V13.6125C16.7538 13.6125 17.2774 13.8743 17.5392 14.267C17.801 14.6597 17.9319 15.1832 17.9319 15.7068H17.0156C17.0156 15.445 16.8847 15.0523 16.7538 14.7906C16.623 14.5288 16.3612 14.5288 16.0994 14.5288C15.8376 14.5288 15.5758 14.6597 15.4449 14.7906C15.3141 14.9215 15.1832 15.1832 15.1832 15.445C15.1832 15.7068 15.3141 15.8377 15.4449 16.0995C15.7067 16.2304 15.9685 16.4921 16.2303 16.4921C16.4921 16.623 16.7538 16.7539 17.1465 16.8848C17.2774 17.0157 17.5392 17.1466 17.6701 17.2775C17.801 17.4084 17.9319 17.6701 18.0627 17.801C18.1936 18.0628 18.1936 18.1937 18.1936 18.4555C18.1936 18.8482 18.0627 19.3717 17.801 19.6335C17.4083 20.0262 17.0156 20.1571 16.4921 20.1571V20.9424H15.7067V20.1571C14.6596 20.1571 13.8743 19.2408 13.8743 18.1937H14.9214C14.9214 18.4555 15.0523 18.8482 15.1832 18.979C15.4449 19.2408 15.7067 19.2408 15.9685 19.2408C16.2303 19.2408 16.4921 19.1099 16.7538 18.979C16.8847 18.8482 17.0156 18.5864 17.0156 18.4555Z" fill="#F5F8FD"/>
</svg>
