<svg width="25" height="25" viewBox="0 0 25 25" fill="none" xmlns="http://www.w3.org/2000/svg">
<path d="M7.52319 7.17591V17.3611C7.52319 18.5185 8.44912 19.5602 9.72227 19.5602H15.2778C16.4352 19.5602 17.4769 18.6342 17.4769 17.3611V7.17591C17.4769 6.94443 17.2454 6.71295 17.0139 6.71295H7.98616C7.75467 6.71295 7.52319 6.94443 7.52319 7.17591Z" stroke="#231F20" stroke-linecap="round" stroke-linejoin="round"/>
<path d="M11.1111 25H13.8889V19.4444H11.1111V25Z" fill="#231F20"/>
<path d="M9.49072 1.38888V6.71295H15.625V1.38888C15.625 0.925915 15.2778 0.462952 14.6991 0.462952H10.4166C9.83795 0.462952 9.49072 0.810174 9.49072 1.38888Z" stroke="#231F20" stroke-width="0.8" stroke-linecap="round" stroke-linejoin="round"/>
<path d="M10.9954 3.70368C10.8796 3.70368 10.8796 3.58794 10.8796 3.4722V1.73609C10.8796 1.62035 10.9954 1.50461 11.1111 1.50461C11.2269 1.50461 11.3426 1.62035 11.3426 1.73609V3.4722C11.2269 3.58794 11.1111 3.70368 10.9954 3.70368Z" fill="#231F20"/>
<path d="M12.0371 3.70368C11.9214 3.70368 11.8057 3.58794 11.8057 3.4722V1.73609C11.8057 1.62035 11.9214 1.50461 12.0371 1.50461C12.1529 1.50461 12.2686 1.62035 12.2686 1.73609V3.4722C12.2686 3.58794 12.1529 3.70368 12.0371 3.70368Z" fill="#231F20"/>
<path d="M12.9629 3.70368C12.8472 3.70368 12.7314 3.58794 12.7314 3.4722V1.73609C12.7314 1.62035 12.8472 1.50461 12.9629 1.50461C13.0787 1.50461 13.1944 1.62035 13.1944 1.73609V3.4722C13.1944 3.58794 13.0787 3.70368 12.9629 3.70368Z" fill="#231F20"/>
<path d="M14.0047 3.70368C13.8889 3.70368 13.7732 3.58794 13.7732 3.4722V1.73609C13.7732 1.62035 13.8889 1.50461 14.0047 1.50461C14.1204 1.50461 14.2362 1.62035 14.2362 1.73609V3.4722C14.2362 3.58794 14.1204 3.70368 14.0047 3.70368Z" fill="#231F20"/>
</svg>
