<svg width="25" height="25" viewBox="0 0 25 25" fill="none" xmlns="http://www.w3.org/2000/svg">
<g clip-path="url(#clip0_2164_1172)">
<path d="M10.9514 24.4466H9.8452C9.18148 24.4466 8.62839 23.8935 8.62839 23.2298V12.8316C8.07529 13.0528 7.52219 13.2741 6.96909 13.1635C5.19918 13.1635 3.53989 11.5042 3.20803 11.1723C3.09741 11.1723 3.09741 11.0617 3.09741 10.9511V7.41124C3.09741 7.30062 3.09741 7.19 3.20803 7.07938C4.09299 5.97319 5.53104 5.19885 6.96909 5.08823C8.07529 4.97761 9.07086 5.42009 9.8452 6.0838C11.5045 7.52186 12.0576 11.5042 12.0576 12.1679C12.0576 12.8316 12.0576 19.2475 12.1682 22.3449V23.2298C12.1682 23.8935 11.6151 24.4466 10.9514 24.4466Z" stroke="#231F20" stroke-linecap="round" stroke-linejoin="round"/>
<path d="M16.2612 19.8008H15.155C14.4913 19.8008 13.9382 19.2477 13.9382 18.584C13.9382 15.376 13.9382 7.74327 14.1595 6.85831C15.8188 0.553002 18.9161 0.442383 19.0267 0.442383C19.3586 0.442383 22.1241 0.553002 22.1241 4.31406C22.1241 7.41141 20.5754 8.5176 19.248 8.5176C18.5842 8.40698 18.0312 8.18575 17.5887 7.74327V18.4734C17.4781 19.2477 16.925 19.8008 16.2612 19.8008Z" stroke="#231F20" stroke-linecap="round" stroke-linejoin="round"/>
<path d="M18.916 2.98682H19.2478C19.5797 2.98682 19.9115 3.31867 19.9115 3.65053V5.30983C19.9115 5.7523 19.5797 6.08416 19.1372 6.08416H18.8053C18.3629 6.08416 18.031 5.7523 18.031 5.30983V3.65053C18.1416 3.31867 18.4735 2.98682 18.916 2.98682Z" fill="#231F20"/>
</g>
<defs>
<clipPath id="clip0_2164_1172">
<rect width="25" height="25" fill="white"/>
</clipPath>
</defs>
</svg>
