<svg width="25" height="25" viewBox="0 0 25 25" fill="none" xmlns="http://www.w3.org/2000/svg">
<g clip-path="url(#clip0_2164_1161)">
<path d="M25.0001 19.4446C25.0001 19.4446 24.9159 19.4446 25.0001 19.4446C24.9159 19.5288 24.9159 19.5288 24.9159 19.5288C24.1583 19.6971 23.4849 19.7813 22.7273 19.8655C18.6869 19.9496 6.31318 19.9496 2.35696 19.8655C1.59938 19.8655 0.841804 19.6971 0.168404 19.5288C0.168404 19.5288 0.0842285 19.5288 0.0842285 19.4446V18.7712C0.0842285 18.7712 0.0842285 18.687 0.168404 18.687H25.0001C25.0842 18.687 25.0842 18.687 25.0842 18.7712V19.4446H25.0001Z" fill="#231F20"/>
<path d="M22.3905 5.97652C22.4747 5.97652 22.6431 6.06069 22.6431 6.22904V18.2661H2.69356V6.22904C2.69356 6.14487 2.77773 5.97652 2.94608 5.97652H22.3905ZM22.3905 5.13477H2.94608C2.35686 5.13477 1.85181 5.63982 1.85181 6.22904V19.192H23.569V6.22904C23.569 5.63982 23.0639 5.13477 22.3905 5.13477C22.4747 5.13477 22.3905 5.13477 22.3905 5.13477Z" fill="#231F20"/>
<path d="M8.41748 18.8555H16.5825V19.108C16.5825 19.1922 16.4983 19.2763 16.4141 19.2763H8.58583C8.50166 19.2763 8.41748 19.1922 8.41748 19.108V18.8555Z" fill="white"/>
</g>
<defs>
<clipPath id="clip0_2164_1161">
<rect width="25" height="25" fill="white"/>
</clipPath>
</defs>
</svg>
